<svg width="143" height="143" viewBox="0 0 143 143" fill="none" xmlns="http://www.w3.org/2000/svg">
<g id="Mask Group">
<g id="arrows" filter="url(#filter0_d)">
<g id="blueArrow">
<path id="blue" d="M79.6839 65.4861C83.2899 67.8562 83.2899 73.1438 79.6839 75.5139L60.3736 88.206C56.3838 90.8284 51.0781 87.9665 51.0781 83.1921V57.8079C51.0781 53.0335 56.3838 50.1716 60.3736 52.794L79.6839 65.4861Z" fill="#1162FF" fill-opacity="0.5"/>
</g>
<g id="greenArrows">
<path id="green2" d="M79.6058 65.8018C83.2118 68.1719 83.2118 73.4595 79.6058 75.8296L60.2955 88.5217C56.3057 91.1441 51 88.2822 51 83.5078V58.1236C51 53.3492 56.3057 50.4873 60.2955 53.1097L79.6058 65.8018Z" fill="#4FFF11" fill-opacity="0.5"/>
<path id="green1" d="M59.6058 65.8018C63.2118 68.1719 63.2118 73.4595 59.6058 75.8296L40.2955 88.5217C36.3057 91.1441 31 88.2822 31 83.5078V58.1236C31 53.3492 36.3057 50.4873 40.2955 53.1097L59.6058 65.8018Z" fill="#4FFF11" fill-opacity="0.5"/>
</g>
</g>
</g>
<defs>
<filter id="filter0_d" x="-4" y="0" width="151" height="151" filterUnits="userSpaceOnUse" color-interpolation-filters="sRGB">
<feFlood flood-opacity="0" result="BackgroundImageFix"/>
<feColorMatrix in="SourceAlpha" type="matrix" values="0 0 0 0 0 0 0 0 0 0 0 0 0 0 0 0 0 0 127 0"/>
<feOffset dy="4"/>
<feGaussianBlur stdDeviation="2"/>
<feColorMatrix type="matrix" values="0 0 0 0 0 0 0 0 0 0 0 0 0 0 0 0 0 0 0.25 0"/>
<feBlend mode="normal" in2="BackgroundImageFix" result="effect1_dropShadow"/>
<feBlend mode="normal" in="SourceGraphic" in2="effect1_dropShadow" result="shape"/>
</filter>
</defs>
</svg>
